<svg width="64" height="64" viewBox="0 0 210 210" xmlns="http://www.w3.org/2000/svg">
  <clipPath id="icon-mask">
    <rect x="0" y="0" width="210" height="210" rx="26" ry="26" />
  </clipPath>

  <g clip-path="url(#icon-mask)">
    <rect width="210" height="210" fill="rgb(30, 30, 30)"/>
    
    <defs>
      <g id="via">
        <path d="M0,-30 A30,30 0 1,0 0,30 A30,30 0 1,0 0,-30 Z M0,-15 A15,15 0 1,1 0,15 A15,15 0 1,1 0,-15 Z" 
              fill="rgb(212, 175, 0)" fill-rule="evenodd"/>
      </g>
    </defs>

    <g transform="translate(105, 105)">
      <use href="#via" x="0" y="0"/>
      <use href="#via" x="-70" y="0"/>
      <use href="#via" x="70" y="0"/>

      <g transform="translate(0, -70)">
        <use href="#via" x="-35" y="0"/>
        <use href="#via" x="35" y="0"/>
        <use href="#via" x="-105" y="0"/>
        <use href="#via" x="105" y="0"/>
      </g>

      <g transform="translate(0, 70)">
        <use href="#via" x="-35" y="0"/>
        <use href="#via" x="35" y="0"/>
        <use href="#via" x="-105" y="0"/>
        <use href="#via" x="105" y="0"/>
      </g>
    </g>
  </g>
</svg>
